<svg width="39" height="50" viewBox="0 0 39 50" fill="none" xmlns="http://www.w3.org/2000/svg">
<path fill-rule="evenodd" clip-rule="evenodd" d="M7.82038 18.9233L9.34776 17.362L2 9.78458L4.87161 7L12.1459 14.5016L24.3758 2L27.2351 4.79718L14.9315 17.3742L25.0557 27.8149L27.8715 25L30.4958 28.0188L27.8338 30.6798L36.8715 40L33.9999 42.7846L25.0046 33.5081L10.4446 48.0628L7.82034 45.044L22.2264 30.6431L12.1333 20.2346L10.6797 21.7205L7.82038 18.9233Z" fill="black"/>
<path d="M9.34776 17.362L10.0626 18.0613L10.7437 17.365L10.0657 16.6658L9.34776 17.362ZM7.82038 18.9233L7.10555 18.224L6.40625 18.9388L7.12109 19.6381L7.82038 18.9233ZM2 9.78458L1.30386 9.06668L0.585954 9.76282L1.2821 10.4807L2 9.78458ZM4.87161 7L5.58951 6.30385L4.89336 5.58595L4.17546 6.2821L4.87161 7ZM12.1459 14.5016L11.428 15.1978L12.1428 15.9349L12.8607 15.2009L12.1459 14.5016ZM24.3758 2L25.0751 1.28517L24.3602 0.585872L23.6609 1.30071L24.3758 2ZM27.2351 4.79718L27.9499 5.49647L28.6492 4.78164L27.9344 4.08234L27.2351 4.79718ZM14.9315 17.3742L14.2166 16.6749L13.5355 17.3712L14.2136 18.0704L14.9315 17.3742ZM25.0557 27.8149L24.3378 28.511L25.0446 29.2399L25.7627 28.5221L25.0557 27.8149ZM27.8715 25L28.6262 24.3439L27.9228 23.5348L27.1646 24.2928L27.8715 25ZM30.4958 28.0188L31.2028 28.726L31.8624 28.0666L31.2505 27.3627L30.4958 28.0188ZM27.8338 30.6798L27.1269 29.9726L26.4303 30.6689L27.1159 31.376L27.8338 30.6798ZM36.8715 40L37.5677 40.7179L38.2856 40.0218L37.5894 39.3039L36.8715 40ZM33.9999 42.7846L33.282 43.4807L33.9782 44.1986L34.6961 43.5025L33.9999 42.7846ZM25.0046 33.5081L25.7225 32.8119L25.0157 32.083L24.2976 32.8009L25.0046 33.5081ZM10.4446 48.0628L9.68993 48.7189L10.3933 49.5281L11.1516 48.7701L10.4446 48.0628ZM7.82034 45.044L7.11336 44.3368L6.45373 44.9962L7.06564 45.7001L7.82034 45.044ZM22.2264 30.6431L22.9334 31.3503L23.63 30.654L22.9443 29.947L22.2264 30.6431ZM12.1333 20.2346L12.8512 19.5384L12.1365 18.8013L11.4185 19.5353L12.1333 20.2346ZM10.6797 21.7205L9.98042 22.4353L10.6953 23.1346L11.3946 22.4198L10.6797 21.7205ZM8.63293 16.6627L7.10555 18.224L8.53521 19.6226L10.0626 18.0613L8.63293 16.6627ZM1.2821 10.4807L8.62986 18.0581L10.0657 16.6658L2.7179 9.08843L1.2821 10.4807ZM4.17546 6.2821L1.30386 9.06668L2.69614 10.5025L5.56775 7.7179L4.17546 6.2821ZM12.8638 13.8055L5.58951 6.30385L4.1537 7.69614L11.428 15.1978L12.8638 13.8055ZM23.6609 1.30071L11.4311 13.8023L12.8607 15.2009L25.0906 2.69929L23.6609 1.30071ZM27.9344 4.08234L25.0751 1.28517L23.6765 2.71483L26.5358 5.51201L27.9344 4.08234ZM15.6463 18.0735L27.9499 5.49647L26.5203 4.09788L14.2166 16.6749L15.6463 18.0735ZM25.7736 27.1187L15.6494 16.6781L14.2136 18.0704L24.3378 28.511L25.7736 27.1187ZM25.7627 28.5221L28.5785 25.7072L27.1646 24.2928L24.3487 27.1076L25.7627 28.5221ZM27.1168 25.6561L29.7411 28.6749L31.2505 27.3627L28.6262 24.3439L27.1168 25.6561ZM29.7889 27.3116L27.1269 29.9726L28.5408 31.3871L31.2028 28.726L29.7889 27.3116ZM37.5894 39.3039L28.5517 29.9837L27.1159 31.376L36.1536 40.6961L37.5894 39.3039ZM34.6961 43.5025L37.5677 40.7179L36.1754 39.2821L33.3038 42.0667L34.6961 43.5025ZM24.2867 34.2042L33.282 43.4807L34.7178 42.0884L25.7225 32.8119L24.2867 34.2042ZM24.2976 32.8009L9.73765 47.3556L11.1516 48.7701L25.7116 34.2153L24.2976 32.8009ZM11.1993 47.4068L8.57504 44.388L7.06564 45.7001L9.68993 48.7189L11.1993 47.4068ZM8.52732 45.7513L22.9334 31.3503L21.5194 29.9359L7.11336 44.3368L8.52732 45.7513ZM11.4154 20.9307L21.5085 31.3393L22.9443 29.947L12.8512 19.5384L11.4154 20.9307ZM11.3946 22.4198L12.8481 20.9339L11.4185 19.5353L9.96488 21.0212L11.3946 22.4198ZM7.12109 19.6381L9.98042 22.4353L11.379 21.0056L8.51967 18.2085L7.12109 19.6381Z" fill="black"/>
</svg>
